<svg viewBox="0 0 16 16"><path style="fill:#828282" d="M 9.0676903,7.6402263 Q 9.1447837,8.2402515 8.5807765,8.6021699 8.0167106,8.964098 7.5056867,8.6593077 7.1296494,8.4974009 6.9898409,8.1069039 6.8500324,7.7164069 6.9849323,7.3259098 7.1199188,6.9354225 7.4863121,6.773506 7.8334273,6.602073 8.1853644,6.6592206 q 0.3519275,0.057138 0.6170883,0.3381029 0.265151,0.280965 0.265151,0.6428931 z M 10.137958,7.4402147 Q 10.002971,6.4211235 9.0484122,5.8782362 8.0938528,5.3353586 7.1489373,5.7544246 6.5414834,6.0211003 6.179912,6.5973196 5.8183309,7.173539 5.8472628,7.8307117 5.8858585,8.6974126 6.5945156,9.3069641 7.3032021,9.9165151 8.190273,9.8403251 9.0676903,9.7641731 9.6558564,9.0402882 10.244022,8.3164417 10.137958,7.4402147 Z M 12.442402,2.2780758 Q 12.249561,2.0209166 11.902446,1.8542467 11.555331,1.6875671 11.343212,1.6447089 11.131083,1.6018312 10.658626,1.5256604 7.8528019,1.0780157 5.2012426,1.544674 4.7866391,1.6113187 4.5648763,1.6589691 4.3431036,1.7066002 4.0345644,1.8684972 3.7260154,2.0304137 3.5524627,2.2780467 q 0.289261,0.2666757 0.7327965,0.4333456 0.4435258,0.1666796 0.7086866,0.2095378 0.265151,0.042878 0.843673,0.109532 2.1983798,0.2762019 4.3196182,0.0097 0.607454,-0.076151 0.86296,-0.1142855 0.255517,-0.038124 0.699053,-0.2047747 0.443526,-0.1666699 0.723152,-0.4428718 z m 0.54959,9.8575902 q -0.07709,0.247633 -0.149452,0.72861 -0.07228,0.480976 -0.134986,0.800037 -0.06266,0.31906 -0.274796,0.666699 -0.212129,0.347629 -0.559244,0.538114 -0.829207,0.457171 -1.827154,0.680988 Q 9.0484122,15.773932 8.0986747,15.759642 7.1489373,15.745382 6.155802,15.583446 5.7122763,15.507295 5.3699831,15.412013 5.02769,15.316751 4.6323646,15.154854 4.2370491,14.992947 3.9285001,14.740551 3.6199609,14.488155 3.4271202,14.154806 3.1860693,13.240484 2.8775203,11.373725 l 0.057844,-0.152381 0.1735527,-0.08576 q 2.1501696,1.409588 4.8836832,1.409588 2.7335138,0 4.8933178,-1.409588 0.202484,0.05714 0.231407,0.219054 0.02897,0.161907 -0.04822,0.428592 -0.07709,0.266676 -0.07709,0.352392 z m 1.7452,-9.1527961 Q 14.486507,4.573417 13.666934,9.2212475 13.618714,9.5069761 13.406596,9.7546081 13.194477,10.002241 12.98717,10.135579 12.779864,10.268917 12.46168,10.430833 10.031893,11.630884 6.5800495,11.268965 4.1888389,11.011806 2.7811,9.9450941 2.6364696,9.8307991 2.5352272,9.6926981 2.4339849,9.5545971 2.3713185,9.3593481 2.3086619,9.1640999 2.2845029,9.0355251 2.260442,8.9069504 2.2266589,8.6593174 2.1928757,8.4116844 2.1736264,8.325968 2.0868108,7.8497544 1.9181095,6.8973371 1.7493788,5.94491 1.6481365,5.3591644 1.5468942,4.7734286 1.4215516,3.9543397 1.2961993,3.1352505 1.209423,2.4495088 1.2382965,2.2018758 1.3781635,1.9875846 1.517972,1.7732836 1.6818807,1.6304196 1.8457992,1.4875555 2.1157722,1.3446915 2.3857452,1.2018274 2.5593077,1.1304002 2.7328604,1.0590021 3.0221214,0.9542041 4.2273757,0.5160857 6.0400741,0.3446527 q 3.6543188,-0.35240185 6.5179979,0.4762136 1.494515,0.4381087 2.073036,1.1619552 0.154265,0.1904854 0.159087,0.4857397 0.0049,0.2952446 -0.05303,0.5143087 z" /></svg>
